<?xml version="1.0" encoding="UTF-8"?>
<svg id="Capa_2" data-name="Capa 2" xmlns="http://www.w3.org/2000/svg" viewBox="0 0 666.67 666.67">
  <defs>
    <style>
      .cls-1 {
        fill: #fff;
        stroke-width: 0px;
      }
    </style>
  </defs>
  <g id="Capa_1-2" data-name="Capa 1">
    <path class="cls-1" d="m666.67,151.67c-.37-14.38-1.49-28.73-3.33-43-2.49-12.5-6.64-24.6-12.33-36-5.96-12.36-13.96-23.63-23.67-33.33-9.8-9.59-21.05-17.58-33.33-23.67-11.41-5.59-23.52-9.62-36-12-14.13-2.12-28.38-3.34-42.67-3.67H151.67c-14.38.37-28.73,1.49-43,3.33-12.5,2.49-24.6,6.64-36,12.33-12.36,5.96-23.63,13.96-33.33,23.67-9.59,9.8-17.58,21.05-23.67,33.33-5.59,11.41-9.62,23.52-12,36-2.12,14.13-3.34,28.38-3.67,42.67v363.67c.37,14.38,1.49,28.73,3.33,43,2.49,12.5,6.64,24.6,12.33,36,5.96,12.36,13.96,23.63,23.67,33.33,9.8,9.59,21.05,17.58,33.33,23.67,11.41,5.59,23.52,9.62,36,12,14.13,2.12,28.38,3.34,42.67,3.67h363.67c14.38-.37,28.73-1.49,43-3.33,12.5-2.49,24.6-6.64,36-12.33,12.36-5.96,23.63-13.96,33.33-23.67,9.59-9.8,17.58-21.05,23.67-33.33,5.59-11.41,9.62-23.52,12-36,2.12-14.13,3.34-28.38,3.67-42.67V151.67Zm-325.67,415h0c-40.03-.2-79.36-10.52-114.33-30l-126.67,33.33,33.33-124c-21.5-36.12-33-77.3-33.33-119.33.37-132.18,107.83-239.03,240-238.66,132.18.37,239.03,107.83,238.66,240-.37,131.27-106.4,237.74-237.66,238.66Zm0-437.67c-110.45,1.26-198.96,91.83-197.7,202.28.41,36.04,10.56,71.31,29.37,102.06l4.67,7.67-20,73,76-20.67,7.33,4.33c30.32,17.86,64.81,27.4,100,27.67h0c110.46,0,200-89.54,200-200h0c0-110.46-89.54-200-200-200l.33,3.67Zm116.67,284c-8.83,14.73-23.49,25.02-40.33,28.33-12.45,2.28-25.26,1.47-37.33-2.33-11.36-3.55-22.49-7.78-33.33-12.67-41.21-20.68-76.35-51.69-102-90-13.94-17.75-22.39-39.18-24.33-61.67-.4-18.89,7.23-37.06,21-50,4.06-4.6,9.87-7.26,16-7.33h9.33c3.67,0,8.67,0,13.33,10.33s17,41.33,18.67,44.33c1.66,3.24,1.66,7.09,0,10.33-1.47,3.62-3.5,7-6,10-3,3.67-6.33,8-9,10.67s-6,6-2.67,12c9.07,15.31,20.3,29.23,33.33,41.33,14.2,12.55,30.43,22.58,48,29.67,6,3,9.67,2.67,13,0s15-17.33,19-23.33,8-5,13.33-3,35,16.33,41,19.33,9.67,4.33,11.33,7c1.45,8.72.64,17.67-2.33,26v1Z"/>
  </g>
</svg>